<svg xmlns="http://www.w3.org/2000/svg" width="900" height="882" viewBox="0 0 900 882">
  <rect width="900" height="882" rx="16" fill="#0f172a"/>
  <rect x="0" y="0" width="900" height="34" rx="16" fill="#111827"/>
  <rect x="0" y="34" width="900" height="848" fill="#0f172a"/>
  <circle cx="24" cy="17" r="6" fill="#f87171"/>
  <circle cx="44" cy="17" r="6" fill="#fbbf24"/>
  <circle cx="64" cy="17" r="6" fill="#34d399"/>
  <text x="90" y="22" fill="#94a3b8" font-family="Menlo, Monaco, Consolas, monospace" font-size="14">terminal capture</text>
  <g font-family="Menlo, Monaco, Consolas, monospace" font-size="16">
    <text x="24" y="56" fill="#d6deeb">$ ./pes init</text> <text x="24" y="78" fill="#d6deeb">Initialized empty PES repository in .pes/</text> <text x="24" y="100" fill="#d6deeb"></text> <text x="24" y="122" fill="#d6deeb">$ echo hello &gt; file1.txt</text> <text x="24" y="144" fill="#d6deeb">$ echo world &gt; file2.txt</text> <text x="24" y="166" fill="#d6deeb">$ ./pes add file1.txt file2.txt</text> <text x="24" y="188" fill="#d6deeb"></text> <text x="24" y="210" fill="#d6deeb">$ ./pes status</text> <text x="24" y="232" fill="#d6deeb">Staged changes:</text> <text x="24" y="254" fill="#d6deeb">  staged:     file1.txt</text> <text x="24" y="276" fill="#d6deeb">  staged:     file2.txt</text> <text x="24" y="298" fill="#d6deeb"></text> <text x="24" y="320" fill="#d6deeb">Unstaged changes:</text> <text x="24" y="342" fill="#d6deeb">  (nothing to show)</text> <text x="24" y="364" fill="#d6deeb"></text> <text x="24" y="386" fill="#d6deeb">Untracked files:</text> <text x="24" y="408" fill="#d6deeb">  untracked:  index.h</text> <text x="24" y="430" fill="#d6deeb">  untracked:  object.c</text> <text x="24" y="452" fill="#d6deeb">  untracked:  pes.c</text> <text x="24" y="474" fill="#d6deeb">  untracked:  Makefile</text> <text x="24" y="496" fill="#d6deeb">  untracked:  test_objects</text> <text x="24" y="518" fill="#d6deeb">  untracked:  tree.h</text> <text x="24" y="540" fill="#d6deeb">  untracked:  test_objects.c</text> <text x="24" y="562" fill="#d6deeb">  untracked:  commit.c</text> <text x="24" y="584" fill="#d6deeb">  untracked:  test_tree</text> <text x="24" y="606" fill="#d6deeb">  untracked:  README.md</text> <text x="24" y="628" fill="#d6deeb">  untracked:  index.c</text> <text x="24" y="650" fill="#d6deeb">  untracked:  test_sequence.sh</text> <text x="24" y="672" fill="#d6deeb">  untracked:  .gitignore</text> <text x="24" y="694" fill="#d6deeb">  untracked:  test_tree.c</text> <text x="24" y="716" fill="#d6deeb">  untracked:  pes.h</text> <text x="24" y="738" fill="#d6deeb">  untracked:  README.phase2.md</text> <text x="24" y="760" fill="#d6deeb">  untracked:  commit.h</text> <text x="24" y="782" fill="#d6deeb">  untracked:  tree.c</text> <text x="24" y="804" fill="#d6deeb"></text>
  </g>
</svg>
