<svg xmlns="http://www.w3.org/2000/svg" width="900" height="1894" viewBox="0 0 900 1894">
  <rect width="900" height="1894" rx="16" fill="#0f172a"/>
  <rect x="0" y="0" width="900" height="34" rx="16" fill="#111827"/>
  <rect x="0" y="34" width="900" height="1860" fill="#0f172a"/>
  <circle cx="24" cy="17" r="6" fill="#f87171"/>
  <circle cx="44" cy="17" r="6" fill="#fbbf24"/>
  <circle cx="64" cy="17" r="6" fill="#34d399"/>
  <text x="90" y="22" fill="#94a3b8" font-family="Menlo, Monaco, Consolas, monospace" font-size="14">terminal capture</text>
  <g font-family="Menlo, Monaco, Consolas, monospace" font-size="16">
    <text x="24" y="56" fill="#d6deeb">=== Running integration tests ===</text> <text x="24" y="78" fill="#d6deeb">bash test_sequence.sh</text> <text x="24" y="100" fill="#d6deeb">=== PES-VCS Integration Test ===</text> <text x="24" y="122" fill="#d6deeb"></text> <text x="24" y="144" fill="#d6deeb">--- Repository Initialization ---</text> <text x="24" y="166" fill="#d6deeb">Initialized empty PES repository in .pes/</text> <text x="24" y="188" fill="#d6deeb">PASS: .pes/objects exists</text> <text x="24" y="210" fill="#d6deeb">PASS: .pes/refs/heads exists</text> <text x="24" y="232" fill="#d6deeb">PASS: .pes/HEAD exists</text> <text x="24" y="254" fill="#d6deeb"></text> <text x="24" y="276" fill="#d6deeb">--- Staging Files ---</text> <text x="24" y="298" fill="#d6deeb">Status after add:</text> <text x="24" y="320" fill="#d6deeb">Staged changes:</text> <text x="24" y="342" fill="#d6deeb">  staged:     file.txt</text> <text x="24" y="364" fill="#d6deeb">  staged:     hello.txt</text> <text x="24" y="386" fill="#d6deeb"></text> <text x="24" y="408" fill="#d6deeb">Unstaged changes:</text> <text x="24" y="430" fill="#d6deeb">  (nothing to show)</text> <text x="24" y="452" fill="#d6deeb"></text> <text x="24" y="474" fill="#d6deeb">Untracked files:</text> <text x="24" y="496" fill="#d6deeb">  (nothing to show)</text> <text x="24" y="518" fill="#d6deeb"></text> <text x="24" y="540" fill="#d6deeb"></text> <text x="24" y="562" fill="#d6deeb">--- First Commit ---</text> <text x="24" y="584" fill="#d6deeb">Committed: e9471307e348... Initial commit</text> <text x="24" y="606" fill="#d6deeb"></text> <text x="24" y="628" fill="#d6deeb">Log after first commit:</text> <text x="24" y="650" fill="#d6deeb">commit e9471307e348e75c0fd7080f8e4e9971c76e7f73c17de7f901f5946ba1819cc0</text> <text x="24" y="672" fill="#d6deeb">Author: Dhoni Satwik &lt;PES1UG24CS321&gt;</text> <text x="24" y="694" fill="#d6deeb">Date:   1776831833</text> <text x="24" y="716" fill="#d6deeb"></text> <text x="24" y="738" fill="#d6deeb">    Initial commit</text> <text x="24" y="760" fill="#d6deeb"></text> <text x="24" y="782" fill="#d6deeb"></text> <text x="24" y="804" fill="#d6deeb">--- Second Commit ---</text> <text x="24" y="826" fill="#d6deeb">Committed: 40a26de0a484... Update file.txt</text> <text x="24" y="848" fill="#d6deeb"></text> <text x="24" y="870" fill="#d6deeb">--- Third Commit ---</text> <text x="24" y="892" fill="#d6deeb">Committed: e51752cf9902... Add farewell</text> <text x="24" y="914" fill="#d6deeb"></text> <text x="24" y="936" fill="#d6deeb">--- Full History ---</text> <text x="24" y="958" fill="#d6deeb">commit e51752cf9902f071f0312fdf68072aaff13fabdcee061a05c520a9ba09f243f0</text> <text x="24" y="980" fill="#d6deeb">Author: Dhoni Satwik &lt;PES1UG24CS321&gt;</text> <text x="24" y="1002" fill="#d6deeb">Date:   1776831833</text> <text x="24" y="1024" fill="#d6deeb"></text> <text x="24" y="1046" fill="#d6deeb">    Add farewell</text> <text x="24" y="1068" fill="#d6deeb"></text> <text x="24" y="1090" fill="#d6deeb">commit 40a26de0a48480b5348e1f2cb85a7ba8840c05c73c47688b8b9d481603c3a4a9</text> <text x="24" y="1112" fill="#d6deeb">Author: Dhoni Satwik &lt;PES1UG24CS321&gt;</text> <text x="24" y="1134" fill="#d6deeb">Date:   1776831833</text> <text x="24" y="1156" fill="#d6deeb"></text> <text x="24" y="1178" fill="#d6deeb">    Update file.txt</text> <text x="24" y="1200" fill="#d6deeb"></text> <text x="24" y="1222" fill="#d6deeb">commit e9471307e348e75c0fd7080f8e4e9971c76e7f73c17de7f901f5946ba1819cc0</text> <text x="24" y="1244" fill="#d6deeb">Author: Dhoni Satwik &lt;PES1UG24CS321&gt;</text> <text x="24" y="1266" fill="#d6deeb">Date:   1776831833</text> <text x="24" y="1288" fill="#d6deeb"></text> <text x="24" y="1310" fill="#d6deeb">    Initial commit</text> <text x="24" y="1332" fill="#d6deeb"></text> <text x="24" y="1354" fill="#d6deeb"></text> <text x="24" y="1376" fill="#d6deeb">--- Reference Chain ---</text> <text x="24" y="1398" fill="#d6deeb">HEAD:</text> <text x="24" y="1420" fill="#d6deeb">ref: refs/heads/main</text> <text x="24" y="1442" fill="#d6deeb">refs/heads/main:</text> <text x="24" y="1464" fill="#d6deeb">e51752cf9902f071f0312fdf68072aaff13fabdcee061a05c520a9ba09f243f0</text> <text x="24" y="1486" fill="#d6deeb"></text> <text x="24" y="1508" fill="#d6deeb">--- Object Store ---</text> <text x="24" y="1530" fill="#d6deeb">Objects created:</text> <text x="24" y="1552" fill="#d6deeb">      10</text> <text x="24" y="1574" fill="#d6deeb">.pes/objects/0b/d69098bd9b9cc5934a610ab65da429b525361147faa7b5b922919e9a23143d</text> <text x="24" y="1596" fill="#d6deeb">.pes/objects/10/1f28a12274233d119fd3c8d7c7216054ddb5605f3bae21c6fb6ee3c4c7cbfa</text> <text x="24" y="1618" fill="#d6deeb">.pes/objects/40/a26de0a48480b5348e1f2cb85a7ba8840c05c73c47688b8b9d481603c3a4a9</text> <text x="24" y="1640" fill="#d6deeb">.pes/objects/58/a67ed1c161a4e89a110968310fe31e39920ef68d4c7c7e0d6695797533f50d</text> <text x="24" y="1662" fill="#d6deeb">.pes/objects/ab/5824a9ec1ef505b5480b3e37cd50d9c80be55012cabe0ca572dbf959788299</text> <text x="24" y="1684" fill="#d6deeb">.pes/objects/b1/7b838c5951aa88c09635c5895ef7e08f7fa1974d901ce282f30e08de0ccd92</text> <text x="24" y="1706" fill="#d6deeb">.pes/objects/d0/7733c25d2d137b7574be8c5542b562bf48bafeaa3829f61f75b8d10d5350f9</text> <text x="24" y="1728" fill="#d6deeb">.pes/objects/db/07a1451ca9544dbf66d769b505377d765efae7adc6b97b75cc9d2b3b3da6ff</text> <text x="24" y="1750" fill="#d6deeb">.pes/objects/e5/1752cf9902f071f0312fdf68072aaff13fabdcee061a05c520a9ba09f243f0</text> <text x="24" y="1772" fill="#d6deeb">.pes/objects/e9/471307e348e75c0fd7080f8e4e9971c76e7f73c17de7f901f5946ba1819cc0</text> <text x="24" y="1794" fill="#d6deeb"></text> <text x="24" y="1816" fill="#d6deeb">=== All integration tests completed ===</text>
  </g>
</svg>
